<?xml version="1.0" standalone="no"?>
<!DOCTYPE svg PUBLIC "-//W3C//DTD SVG 20010904//EN"
 "http://www.w3.org/TR/2001/REC-SVG-20010904/DTD/svg10.dtd">
<svg version="1.0" xmlns="http://www.w3.org/2000/svg"
 width="16.000000pt" height="16.000000pt" viewBox="0 0 16.000000 16.000000"
 preserveAspectRatio="xMidYMid meet">
<metadata>
Created by potrace 1.11, written by Peter Selinger 2001-2013
</metadata>
<g transform="translate(0.000000,16.000000) scale(0.002286,-0.002286)"
fill="#000000" stroke="none">
<path d="M1268 5222 c-68 -2 -110 -7 -116 -15 -5 -7 -30 -75 -55 -152 -26 -77
-279 -835 -563 -1685 -284 -850 -520 -1557 -524 -1573 l-9 -27 452 2 c293 2
452 7 452 13 1 6 15 53 32 105 17 52 77 237 133 410 56 173 115 353 130 400
16 47 74 225 129 395 94 294 185 574 413 1280 55 171 126 391 158 490 82 251
111 347 107 351 -4 4 -611 10 -739 6z"/>
<path d="M3454 5218 c-6 -9 -11 -456 -16 -1270 -1 -263 -5 -474 -9 -470 -4 4
-54 77 -111 162 -271 401 -435 645 -673 1000 -305 454 -386 573 -390 568 -3
-3 -98 -351 -119 -438 -2 -8 -29 -109 -61 -224 -31 -115 -55 -217 -52 -225 2
-9 33 -61 69 -116 36 -55 129 -198 206 -317 l141 -218 -97 -1 c-53 0 -149 -2
-212 -3 l-115 -2 0 -328 c0 -210 3 -330 10 -334 5 -4 159 -8 340 -8 182 -1
337 -2 345 -3 9 0 24 -16 35 -33 10 -18 84 -134 163 -258 80 -124 161 -251
181 -283 20 -31 73 -114 119 -184 45 -69 82 -127 82 -129 0 -1 47 -76 104
-166 l104 -163 391 -2 391 -1 1 21 c1 39 0 2510 -1 2969 -1 292 -5 450 -12
454 -15 10 -809 11 -814 2z"/>
<path d="M4548 5208 c-2 -7 -4 -141 -3 -298 l1 -285 34 -1 c19 -1 190 -3 380
-5 341 -3 428 -10 530 -43 130 -41 262 -120 355 -213 57 -57 145 -165 145
-178 0 -4 9 -19 19 -34 50 -70 132 -299 147 -409 3 -26 9 -51 12 -56 9 -16 10
-318 1 -396 -38 -322 -192 -618 -410 -785 -126 -98 -241 -148 -414 -180 -16
-3 -207 -8 -424 -10 -216 -3 -396 -7 -400 -10 -11 -12 -13 -518 -1 -525 13 -8
873 -4 985 4 99 8 122 11 210 30 210 43 367 104 530 206 97 60 111 71 189 140
378 337 575 822 561 1380 -2 91 -6 176 -8 190 -3 14 -8 48 -12 75 -18 125 -65
288 -125 430 -229 541 -677 890 -1245 971 -27 4 -276 9 -551 11 -409 4 -502 2
-506 -9z"/>
</g>
</svg>
