<svg xmlns:rdf="http://www.w3.org/1999/02/22-rdf-syntax-ns#" xmlns="http://www.w3.org/2000/svg" height="174.1mm" width="352.8mm" version="1.1" xmlns:cc="http://creativecommons.org/ns#" xmlns:dc="http://purl.org/dc/elements/1.1/" viewBox="0 0 1249.4837 616.20097">
<defs>
<filter id="a" style="color-interpolation-filters:sRGB">
<feFlood result="flood" flood-color="rgb(0,0,0)"/>
<feComposite operator="in" result="composite1" in2="SourceGraphic" in="flood"/>
<feGaussianBlur stdDeviation="10" result="blur" in="composite1"/>
<feOffset result="offset" dx="6.6" dy="6.6"/>
<feComposite operator="over" result="composite2" in2="offset" in="SourceGraphic"/>
</filter>
</defs>
<title>LogoAndRBR</title>
<g style="filter:url(#a);fill:#d3e3e1" transform="translate(98.25 -351.6)">
<path style="fill:#d3e3e1" d="m6.13 916c0-1.02 171-511 171-512 0.611-0.736 13.6-0.922 63.6-0.913 34.5 0.006 63.2 0.263 63.7 0.57 0.662 0.421 0.363 2.17-1.21 7.06-7.77 24.2-75.2 233-83 257-5.32 16.3-12.7 39-16.3 50.4-3.65 11.4-8.59 26.7-11 34.1-4.49 13.9-5.72 17.6-21.6 66.3-5.19 15.9-14 43.2-19.6 60.5-5.59 17.3-10.6 32.8-11.1 34.4l-0.951 2.9-66.9 0.185c-36.8 0.102-66.9 0.0987-66.9-0.01zm500-32c-11.1-17.4-21.9-34.3-24-37.5-2.06-3.2-6.16-9.6-9.09-14.2-2.94-4.63-18.2-28.5-34-53.1l-28.6-44.7h-105v-99.2l1.63-0.437c0.897-0.24 15.1-0.442 31.5-0.447 16.4-0.006 29.9-0.178 29.9-0.384s-14.2-22-31.5-48.5-31.5-48.4-31.5-48.7c0.009-1.41 35.4-133 35.7-133 0.226 0 38.4 56.6 84.8 126 46.4 69.2 85.8 128 87.6 130l3.24 4.59 0.575-129c0.343-77.2 0.848-130 1.25-131l0.678-1.63h60.5c33.3 0 61 0.198 61.6 0.44 1.04 0.4 1.15 23.7 1.15 257v256h-116l-20.2-31.7zm171-7.75c0-30.8 0.2-39.6 0.906-40.1 0.498-0.323 24.6-0.502 53.5-0.399 54.5 0.194 62.8-0.114 76.3-2.81 61.9-12.3 107-68 116-144 1.45-11.7 1.68-37.4 0.422-48.6-6.25-55.8-29.8-99.4-67.5-125-11.4-7.76-29.8-15.7-43.5-18.8-15.2-3.42-17.2-3.52-75.6-3.85l-55.6-0.314v-89l59.6-0.0574c75.8-0.0731 75.8-0.0738 88.1 1.2 32.4 3.34 58.9 11 86.5 25 59.8 30.3 103 87.1 122 159 11.3 43.9 11.8 95.4 1.36 139-13.7 57.4-42.2 104-84.4 138-35.8 28.6-81 45.5-133 49.6-5.52 0.441-37.2 0.747-77.4 0.747h-68v-39.5z"/>
</g>
<text style="letter-spacing:0px;font-size:49.98px;word-spacing:0px;font-family:sans-serif;line-height:125%;fill:#000000" xml:space="preserve" y="624.72357" x="659.85565"><tspan x="659.85565" y="624.72357"/></text>
</svg>
